<svg version="1.1" id="Layer_1" xmlns="http://www.w3.org/2000/svg" xmlns:xlink="http://www.w3.org/1999/xlink" x="0px" y="0px"
	 width="100%" viewBox="0 0 598 598" enable-background="new 0 0 598 598" xml:space="preserve">
<path fill="#000000" opacity="1.000000" stroke="none" 
	d="
M376.000000,599.000000 
	C250.666672,599.000000 125.833336,599.000000 1.000000,599.000000 
	C1.000000,399.666656 1.000000,200.333328 1.000000,1.000000 
	C200.333328,1.000000 399.666656,1.000000 599.000000,1.000000 
	C599.000000,200.333328 599.000000,399.666656 599.000000,599.000000 
	C524.833313,599.000000 450.666656,599.000000 376.000000,599.000000 
M214.825119,163.407104 
	C211.776825,165.420456 208.586288,167.249374 205.701340,169.474518 
	C153.124329,210.026871 130.541275,263.068573 141.167252,328.894836 
	C152.097046,396.603058 208.929840,450.739716 277.300903,459.803467 
	C315.076385,464.811279 350.342712,457.359772 383.058716,437.711243 
	C446.846954,399.401398 476.011139,319.579498 451.947327,248.898376 
	C430.919617,187.134903 375.197906,144.166138 309.816406,139.730301 
	C275.964905,137.433624 244.458313,145.343628 214.825119,163.407104 
z"/>
<path fill="#FCF8F7" opacity="1.000000" stroke="none" 
	d="
M215.150604,163.245758 
	C244.458313,145.343628 275.964905,137.433624 309.816406,139.730301 
	C375.197906,144.166138 430.919617,187.134903 451.947327,248.898376 
	C476.011139,319.579498 446.846954,399.401398 383.058716,437.711243 
	C350.342712,457.359772 315.076385,464.811279 277.300903,459.803467 
	C208.929840,450.739716 152.097046,396.603058 141.167252,328.894836 
	C130.541275,263.068573 153.124329,210.026871 205.701340,169.474518 
	C208.586288,167.249374 211.776825,165.420456 215.150604,163.245758 
M423.913849,365.374817 
	C431.978424,350.602570 437.163605,334.738342 438.875183,318.136230 
	C444.069855,267.748169 427.655640,225.520660 389.177521,192.290970 
	C375.741302,180.687485 360.363647,172.335831 343.153534,166.761597 
	C342.346619,171.019455 341.614716,174.881653 340.896545,178.671173 
	C406.685028,202.388321 440.906647,270.700470 422.477661,335.513397 
	C405.541748,395.075256 343.767639,440.846558 269.999054,425.370178 
	C269.136719,429.139221 268.270721,432.924164 267.407654,436.696320 
	C318.697845,451.023621 389.621307,429.805237 423.913849,365.374817 
M172.134644,360.311676 
	C189.218414,395.166412 215.914185,419.252075 252.568008,432.987152 
	C253.533707,428.349091 254.327087,424.538635 255.099823,420.827271 
	C191.404129,395.925842 160.711319,332.602142 173.926956,271.875854 
	C186.617447,213.562546 246.933701,158.921494 326.805573,174.432907 
	C327.532928,170.743683 328.260590,167.052689 328.985992,163.373352 
	C288.879211,153.130219 235.283997,163.714600 197.507660,203.397202 
	C157.576096,245.343781 147.538986,306.714142 172.134644,360.311676 
M242.313187,323.029633 
	C247.860016,336.393311 256.860748,346.671997 269.828400,353.995697 
	C274.910583,331.463806 279.918793,309.259857 284.922729,287.074768 
	C288.639648,286.911194 291.627350,286.782379 294.614777,286.647766 
	C306.272369,286.122437 306.363983,286.139343 308.556946,274.724274 
	C310.701996,263.558563 312.633606,252.351852 314.726593,240.789230 
	C291.024628,235.639114 270.731354,241.058563 254.633408,258.412262 
	C237.550079,276.828217 233.516068,298.491547 242.313187,323.029633 
M319.910797,296.420288 
	C319.242950,300.181488 318.844208,304.022247 317.768402,307.662872 
	C317.365540,309.026062 315.471039,310.743988 314.110870,310.884003 
	C309.491943,311.359528 304.789948,311.488953 300.154327,311.198273 
	C296.311127,310.957275 294.782135,312.688538 294.118805,316.075928 
	C293.259827,320.462646 292.259766,324.821930 291.305908,329.189850 
	C289.093811,339.319214 286.872955,349.446655 284.665192,359.531311 
	C314.158325,368.166351 347.239258,349.857666 357.361755,319.719940 
	C367.928558,288.259460 350.621582,256.857147 328.617889,247.127472 
	C325.733978,263.283203 322.853058,279.422028 319.910797,296.420288 
M200.126587,309.152588 
	C200.413208,301.349915 200.052765,293.459961 201.092072,285.758850 
	C207.544052,237.950867 249.753418,201.081177 297.902161,201.074417 
	C305.788330,201.073303 313.674591,201.981384 321.763428,202.481781 
	C322.425934,198.878815 323.107788,195.170624 323.921814,190.743637 
	C287.722473,183.652542 255.070984,190.647217 227.220184,214.583298 
	C192.764114,244.196182 180.232651,282.272034 190.386917,326.379150 
	C199.038834,363.960541 223.048004,389.513916 258.539734,404.772339 
	C258.990509,403.310181 259.266693,402.527161 259.471802,401.725983 
	C259.924286,399.958405 260.256989,398.155945 260.791626,396.414734 
	C261.617645,393.724457 260.730011,392.316986 258.129150,391.060669 
	C224.104431,374.625946 205.048676,347.410461 200.126587,309.152588 
M281.348999,373.829559 
	C280.581879,377.503845 279.814758,381.178101 279.053955,384.822113 
	C321.438507,395.839966 370.721832,371.691315 383.607422,322.510101 
	C396.772217,272.263062 364.021423,231.572357 333.172668,220.866455 
	C332.211273,226.233902 331.253326,231.582062 330.282349,237.002991 
	C331.252502,237.544876 331.967346,237.938141 332.676605,238.341171 
	C363.672760,255.954498 376.992035,290.708038 365.442139,323.832855 
	C354.162933,356.181366 319.719482,376.038788 286.527069,369.145264 
	C282.723480,368.355286 281.729187,369.802673 281.348999,373.829559 
M398.493042,289.129883 
	C406.368103,355.391815 346.406982,413.328705 276.082275,397.747131 
	C275.287659,401.513336 274.495514,405.267883 273.710907,408.986755 
	C323.099121,421.609924 385.603119,396.562927 405.741150,334.542969 
	C426.088318,271.878937 388.817963,213.136124 338.298248,195.481766 
	C334.356964,206.385803 334.464539,206.238937 344.285126,211.483002 
	C375.163452,227.971588 393.465820,253.400482 398.493042,289.129883 
M316.142883,231.485703 
	C317.225189,226.353195 318.307495,221.220688 319.379395,216.137543 
	C282.358582,206.134872 232.074600,224.659760 216.407501,274.799744 
	C200.917847,324.371796 231.840729,367.094177 264.386292,379.524628 
	C265.595093,374.195801 266.793762,368.911682 268.057709,363.339905 
	C267.014221,362.760437 266.024445,362.226379 265.049225,361.666992 
	C233.772537,343.728821 220.797714,307.032532 234.029037,273.940552 
	C246.845764,241.885498 279.672760,224.835739 316.142883,231.485703 
z"/>
<path fill="#090505" opacity="1.000000" stroke="none" 
	d="
M423.751160,365.708740 
	C389.621307,429.805237 318.697845,451.023621 267.407654,436.696320 
	C268.270721,432.924164 269.136719,429.139221 269.999054,425.370178 
	C343.767639,440.846558 405.541748,395.075256 422.477661,335.513397 
	C440.906647,270.700470 406.685028,202.388321 340.896545,178.671173 
	C341.614716,174.881653 342.346619,171.019455 343.153534,166.761597 
	C360.363647,172.335831 375.741302,180.687485 389.177521,192.290970 
	C427.655640,225.520660 444.069855,267.748169 438.875183,318.136230 
	C437.163605,334.738342 431.978424,350.602570 423.751160,365.708740 
z"/>
<path fill="#080404" opacity="1.000000" stroke="none" 
	d="
M171.994110,359.961975 
	C147.538986,306.714142 157.576096,245.343781 197.507660,203.397202 
	C235.283997,163.714600 288.879211,153.130219 328.985992,163.373352 
	C328.260590,167.052689 327.532928,170.743683 326.805573,174.432907 
	C246.933701,158.921494 186.617447,213.562546 173.926956,271.875854 
	C160.711319,332.602142 191.404129,395.925842 255.099823,420.827271 
	C254.327087,424.538635 253.533707,428.349091 252.568008,432.987152 
	C215.914185,419.252075 189.218414,395.166412 171.994110,359.961975 
z"/>
<path fill="#030102" opacity="1.000000" stroke="none" 
	d="
M242.191040,322.660767 
	C233.516068,298.491547 237.550079,276.828217 254.633408,258.412262 
	C270.731354,241.058563 291.024628,235.639114 314.726593,240.789230 
	C312.633606,252.351852 310.701996,263.558563 308.556946,274.724274 
	C306.363983,286.139343 306.272369,286.122437 294.614777,286.647766 
	C291.627350,286.782379 288.639648,286.911194 284.922729,287.074768 
	C279.918793,309.259857 274.910583,331.463806 269.828400,353.995697 
	C256.860748,346.671997 247.860016,336.393311 242.191040,322.660767 
z"/>
<path fill="#030202" opacity="1.000000" stroke="none" 
	d="
M319.941467,295.990570 
	C322.853058,279.422028 325.733978,263.283203 328.617889,247.127472 
	C350.621582,256.857147 367.928558,288.259460 357.361755,319.719940 
	C347.239258,349.857666 314.158325,368.166351 284.665192,359.531311 
	C286.872955,349.446655 289.093811,339.319214 291.305908,329.189850 
	C292.259766,324.821930 293.259827,320.462646 294.118805,316.075928 
	C294.782135,312.688538 296.311127,310.957275 300.154327,311.198273 
	C304.789948,311.488953 309.491943,311.359528 314.110870,310.884003 
	C315.471039,310.743988 317.365540,309.026062 317.768402,307.662872 
	C318.844208,304.022247 319.242950,300.181488 319.941467,295.990570 
z"/>
<path fill="#080404" opacity="1.000000" stroke="none" 
	d="
M200.151276,309.615753 
	C205.048676,347.410461 224.104431,374.625946 258.129150,391.060669 
	C260.730011,392.316986 261.617645,393.724457 260.791626,396.414734 
	C260.256989,398.155945 259.924286,399.958405 259.471802,401.725983 
	C259.266693,402.527161 258.990509,403.310181 258.539734,404.772339 
	C223.048004,389.513916 199.038834,363.960541 190.386917,326.379150 
	C180.232651,282.272034 192.764114,244.196182 227.220184,214.583298 
	C255.070984,190.647217 287.722473,183.652542 323.921814,190.743637 
	C323.107788,195.170624 322.425934,198.878815 321.763428,202.481781 
	C313.674591,201.981384 305.788330,201.073303 297.902161,201.074417 
	C249.753418,201.081177 207.544052,237.950867 201.092072,285.758850 
	C200.052765,293.459961 200.413208,301.349915 200.151276,309.615753 
z"/>
<path fill="#060303" opacity="1.000000" stroke="none" 
	d="
M281.491394,373.430695 
	C281.729187,369.802673 282.723480,368.355286 286.527069,369.145264 
	C319.719482,376.038788 354.162933,356.181366 365.442139,323.832855 
	C376.992035,290.708038 363.672760,255.954498 332.676605,238.341171 
	C331.967346,237.938141 331.252502,237.544876 330.282349,237.002991 
	C331.253326,231.582062 332.211273,226.233902 333.172668,220.866455 
	C364.021423,231.572357 396.772217,272.263062 383.607422,322.510101 
	C370.721832,371.691315 321.438507,395.839966 279.053955,384.822113 
	C279.814758,381.178101 280.581879,377.503845 281.491394,373.430695 
z"/>
<path fill="#0A0505" opacity="1.000000" stroke="none" 
	d="
M398.414703,288.687256 
	C393.465820,253.400482 375.163452,227.971588 344.285126,211.483002 
	C334.464539,206.238937 334.356964,206.385803 338.298248,195.481766 
	C388.817963,213.136124 426.088318,271.878937 405.741150,334.542969 
	C385.603119,396.562927 323.099121,421.609924 273.710907,408.986755 
	C274.495514,405.267883 275.287659,401.513336 276.082275,397.747131 
	C346.406982,413.328705 406.368103,355.391815 398.414703,288.687256 
z"/>
<path fill="#060303" opacity="1.000000" stroke="none" 
	d="
M315.746887,231.594543 
	C279.672760,224.835739 246.845764,241.885498 234.029037,273.940552 
	C220.797714,307.032532 233.772537,343.728821 265.049225,361.666992 
	C266.024445,362.226379 267.014221,362.760437 268.057709,363.339905 
	C266.793762,368.911682 265.595093,374.195801 264.386292,379.524628 
	C231.840729,367.094177 200.917847,324.371796 216.407501,274.799744 
	C232.074600,224.659760 282.358582,206.134872 319.379395,216.137543 
	C318.307495,221.220688 317.225189,226.353195 315.746887,231.594543 
z"/>
</svg>